<?xml version="1.0" standalone="no"?>
<!DOCTYPE svg PUBLIC "-//W3C//DTD SVG 20010904//EN"
 "http://www.w3.org/TR/2001/REC-SVG-20010904/DTD/svg10.dtd">
<svg version="1.0" xmlns="http://www.w3.org/2000/svg"
 width="960.000000pt" height="1280.000000pt" viewBox="0 0 960.000000 1280.000000"
 preserveAspectRatio="xMidYMid meet">
<metadata>
Created by potrace 1.15, written by Peter Selinger 2001-2017
</metadata>
<g transform="translate(0.000000,1280.000000) scale(0.100000,-0.100000)"
fill="#000000" stroke="none">
<path d="M6891 12073 c-65 -23 -126 -89 -146 -157 -15 -51 -15 -61 -1 -109 8
-29 31 -71 50 -93 57 -66 62 -103 32 -209 -36 -128 -53 -233 -76 -492 -24
-271 -34 -340 -61 -452 -17 -66 -19 -89 -10 -108 6 -14 16 -55 21 -91 13 -91
-1 -218 -55 -493 -25 -125 -48 -269 -53 -320 -10 -108 -31 -156 -133 -310 -75
-112 -258 -299 -341 -348 -139 -81 -266 -107 -390 -82 -113 24 -91 60 138 222
155 110 236 190 258 255 40 123 51 206 51 394 0 156 -4 203 -24 300 -43 208
-124 414 -227 572 l-43 67 83 60 c169 122 318 283 332 357 16 87 -21 114 -156
114 -107 0 -237 -24 -435 -81 -141 -41 -367 -120 -417 -145 -15 -8 -56 -14
-92 -14 -134 0 -352 -41 -491 -92 -146 -54 -250 -117 -439 -267 -271 -216
-372 -306 -581 -515 -271 -271 -325 -342 -440 -573 -241 -488 -334 -794 -335
-1103 0 -202 28 -267 219 -505 178 -221 225 -332 201 -467 -33 -179 -108 -343
-295 -643 -65 -104 -141 -233 -168 -285 -27 -52 -74 -135 -105 -185 -217 -350
-354 -850 -364 -1320 -1 -66 1 -156 6 -200 11 -105 -3 -137 -77 -170 -56 -25
-280 -65 -363 -65 -270 1 -515 202 -580 475 -12 52 -15 97 -11 175 7 119 16
153 82 299 87 195 109 273 110 388 0 94 -2 103 -24 127 -39 41 -88 51 -172 37
l-70 -13 -59 -74 c-157 -198 -241 -418 -271 -714 -12 -128 -5 -323 16 -437 54
-285 327 -567 657 -677 140 -47 213 -59 373 -59 145 0 153 1 235 33 216 83
343 20 344 -169 0 -178 -97 -393 -230 -508 -148 -128 -158 -268 -33 -450 19
-26 76 -97 128 -158 185 -213 230 -289 376 -625 175 -404 281 -573 443 -702
73 -58 234 -144 250 -134 5 3 73 17 153 31 244 43 353 88 411 166 25 33 39 95
31 141 -6 41 9 32 -243 138 -341 145 -452 257 -494 502 -8 46 -26 116 -41 157
-31 86 -28 132 10 157 14 9 71 30 127 46 57 17 132 43 167 59 159 72 330 217
468 396 l71 93 41 -47 c56 -63 120 -162 171 -263 59 -118 69 -151 81 -264 55
-537 400 -1013 844 -1166 46 -16 63 -17 122 -8 126 20 209 -9 248 -87 23 -46
25 -149 11 -430 -13 -248 15 -308 81 -175 55 109 66 178 71 441 l4 237 55 6
c101 12 147 50 145 123 0 35 -14 75 -61 170 -60 122 -68 147 -53 156 4 3 58
12 121 21 144 22 348 73 476 121 140 52 353 163 465 243 129 92 293 255 367
368 279 422 512 1201 628 2098 l15 118 -64 69 c-150 159 -271 393 -317 614
-21 98 -16 287 9 377 53 188 156 339 329 479 l43 34 22 165 c18 137 22 213 23
445 0 330 -4 357 -96 583 -118 290 -233 476 -394 638 -134 136 -283 233 -457
298 l-56 21 56 65 c210 244 337 551 442 1070 58 283 53 388 -25 557 -75 162
-212 309 -359 384 l-85 44 -15 55 c-29 103 -24 129 53 259 37 64 74 127 81
141 8 15 16 90 21 200 4 96 13 210 20 253 21 132 -17 282 -95 374 -61 73 -169
100 -265 66z m12 -713 c-3 -12 -8 -19 -11 -16 -5 6 5 36 12 36 2 0 2 -9 -1
-20z m-839 -316 c25 -10 19 -65 -13 -115 -43 -68 -142 -170 -277 -285 -112
-95 -124 -109 -147 -166 -14 -35 -21 -65 -16 -66 5 -2 33 14 62 36 97 73 158
91 189 55 23 -28 136 -353 173 -498 93 -363 66 -607 -88 -796 -41 -50 -50 -56
-104 -67 -85 -17 -164 -72 -263 -183 -176 -195 -218 -226 -284 -208 -17 5 -47
25 -67 45 l-38 37 -31 -26 c-40 -35 -89 -47 -181 -47 -139 0 -276 62 -366 164
-54 61 -81 118 -97 203 l-12 68 -32 -32 c-27 -27 -32 -39 -32 -81 0 -66 44
-151 121 -236 137 -149 307 -232 422 -206 35 8 43 6 54 -10 23 -33 97 -70 139
-70 49 0 120 33 200 93 109 80 150 92 210 62 16 -8 63 -19 104 -26 281 -43
611 130 745 392 66 130 89 117 81 -46 -5 -120 -35 -255 -65 -295 -15 -20 -30
-26 -82 -32 -372 -41 -774 -273 -1006 -578 -35 -47 -90 -136 -120 -199 -63
-126 -80 -142 -172 -163 -90 -20 -228 7 -367 73 -146 69 -315 205 -402 324
-35 46 -37 55 -43 143 -5 71 -11 100 -26 120 -66 88 -128 -27 -88 -164 47
-163 178 -307 371 -406 119 -62 247 -105 526 -178 354 -93 384 -105 562 -218
287 -185 448 -326 515 -452 43 -80 54 -181 26 -245 l-17 -40 -20 50 c-42 106
-68 97 -92 -33 -17 -92 -25 -111 -35 -93 -6 8 -18 7 -48 -3 -68 -24 -154 -24
-177 0 -36 35 -10 110 67 191 l30 32 -25 6 c-39 10 -109 -13 -145 -47 -68 -66
-63 -194 13 -278 76 -84 180 -91 326 -22 51 25 106 61 138 91 30 28 55 51 56
51 9 0 -12 -42 -27 -56 -21 -18 -25 -49 -9 -59 6 -3 10 -18 10 -33 0 -15 -40
-279 -88 -587 l-88 -560 -51 0 c-56 0 -81 -16 -134 -89 -63 -85 -27 -146 108
-186 42 -13 42 -13 37 -54 -3 -23 -29 -256 -58 -519 -30 -263 -55 -480 -57
-482 -3 -2 -22 0 -44 5 -22 5 -41 8 -42 6 -2 -1 -26 -423 -53 -937 -28 -514
-53 -949 -56 -966 -5 -32 -6 -33 -52 -33 -225 0 -523 234 -763 600 -70 106
-87 140 -134 265 -255 683 -283 1462 -78 2190 14 50 28 93 32 97 3 4 30 0 59
-7 108 -29 213 15 337 141 108 108 141 168 280 500 113 269 124 487 34 669
-44 90 -125 191 -215 268 -97 84 -127 136 -121 215 6 86 66 132 169 132 103 0
204 -72 251 -180 27 -61 111 -180 127 -180 21 0 22 31 1 97 -41 133 -149 289
-237 344 -21 12 -64 25 -102 30 -37 4 -110 17 -162 28 -151 33 -360 43 -661
32 -246 -9 -491 -2 -588 15 -40 7 -155 73 -310 178 -115 77 -262 211 -323 293
-72 98 -126 224 -147 347 -16 86 -13 345 4 456 38 254 142 534 304 825 140
250 147 258 452 553 390 377 537 498 749 610 152 81 444 158 675 178 64 5 114
20 250 72 330 126 516 177 569 156z m941 -359 c84 -22 150 -61 228 -135 143
-134 234 -315 258 -512 11 -90 10 -99 -26 -273 -121 -588 -244 -863 -474
-1059 -47 -39 -61 -46 -97 -46 -59 0 -90 16 -110 58 -22 46 -15 116 27 282 23
91 33 161 39 255 8 157 22 196 151 430 117 212 141 271 147 367 5 90 -14 142
-78 206 l-39 39 -74 -5 c-60 -4 -76 -1 -90 13 -23 23 -22 37 18 155 33 97 45
170 28 170 -5 0 -28 -14 -52 -30 -48 -33 -82 -38 -101 -15 -19 23 12 62 73 91
61 28 92 30 172 9z m-440 -2262 c-135 -950 -249 -1734 -253 -1742 -5 -8 -18
-18 -31 -23 -24 -8 -24 -8 -17 46 3 30 20 96 36 145 36 108 56 231 70 446 13
190 12 180 100 745 38 245 121 778 185 1185 147 945 148 951 152 938 2 -6
-107 -789 -242 -1740z m468 1696 c12 -46 2 -184 -17 -239 -20 -55 -79 -147
-84 -132 -2 6 3 46 12 89 8 43 17 110 21 148 8 89 32 178 48 172 6 -2 15 -19
20 -38z m-236 -381 c-3 -8 -6 -5 -6 6 -1 11 2 17 5 13 3 -3 4 -12 1 -19z m-10
-90 c-3 -7 -5 -2 -5 12 0 14 2 19 5 13 2 -7 2 -19 0 -25z m-10 -75 c-3 -10 -5
-2 -5 17 0 19 2 27 5 18 2 -10 2 -26 0 -35z m-91 -688 c-98 -736 -94 -706
-146 -1044 -62 -403 -97 -667 -125 -923 -14 -131 -25 -240 -25 -243 0 -11 -30
-4 -31 8 -1 24 406 2869 409 2856 1 -8 -36 -302 -82 -654z m-329 -315 c63 -38
67 -54 39 -166 -44 -175 -63 -332 -91 -729 -19 -272 -44 -521 -56 -552 -6 -16
-17 -23 -34 -23 -60 0 -154 66 -470 329 -146 122 -254 200 -332 242 -37 20
-63 89 -63 167 0 92 40 153 220 333 88 88 190 180 235 211 257 177 458 246
552 188z m598 -30 c328 -84 618 -367 835 -815 99 -202 127 -282 141 -398 19
-154 -6 -443 -61 -710 -18 -88 -24 -101 -103 -218 -206 -306 -293 -527 -291
-744 1 -189 41 -279 238 -542 61 -82 117 -161 125 -176 18 -34 16 -49 -75
-507 -181 -913 -360 -1542 -499 -1755 -52 -80 -203 -229 -293 -289 -186 -123
-596 -300 -787 -340 -95 -20 -215 -31 -215 -20 0 5 13 88 29 184 63 375 162
1250 187 1653 7 105 7 107 -15 107 -14 0 -21 6 -21 19 0 11 18 122 39 248 22
125 61 354 87 508 26 154 49 282 50 284 2 2 37 -4 79 -14 l77 -17 25 24 c31
29 63 90 63 120 0 48 -36 86 -119 125 -62 29 -81 43 -81 59 0 18 294 2622 320
2827 11 91 69 397 77 410 8 12 90 2 188 -23z m-3355 -1170 c69 -46 175 -87
275 -105 100 -19 335 -17 638 5 226 16 468 -10 451 -49 -35 -82 -42 -172 -19
-269 26 -112 36 -124 231 -305 81 -75 105 -126 116 -246 26 -272 -63 -610
-218 -828 -52 -72 -110 -125 -179 -161 -62 -32 -180 -37 -232 -9 -18 9 -34 17
-37 17 -10 0 -97 -284 -131 -423 -75 -311 -101 -561 -92 -891 4 -153 12 -261
27 -351 12 -71 28 -177 35 -235 48 -373 183 -702 411 -1006 85 -113 272 -304
298 -304 35 0 119 -45 156 -84 19 -20 60 -78 90 -129 69 -115 108 -146 223
-177 48 -12 91 -28 97 -35 7 -8 -3 -21 -35 -43 -24 -17 -47 -42 -50 -55 -7
-26 22 -94 49 -116 24 -20 19 -40 -10 -47 -36 -9 -63 6 -142 80 -91 86 -105
86 -92 -1 4 -23 5 -45 3 -47 -3 -2 -37 5 -76 15 -417 116 -740 537 -786 1025
-15 159 -46 239 -193 486 -118 199 -149 310 -114 407 9 24 16 45 16 48 0 2
-20 -10 -44 -26 -63 -43 -113 -104 -242 -291 -206 -299 -313 -380 -518 -387
-101 -3 -112 -9 -167 -95 -51 -79 -71 -158 -71 -278 1 -281 166 -571 392 -684
67 -33 72 -34 105 -20 75 31 156 7 214 -63 32 -39 51 -88 43 -110 -7 -20 -19
-16 -62 23 l-39 36 -7 -29 c-21 -91 -66 -95 -180 -18 -61 42 -68 36 -60 -50 7
-72 6 -76 -19 -101 -23 -23 -32 -26 -72 -20 -62 8 -158 56 -250 125 -158 117
-178 151 -378 643 -191 468 -306 683 -465 866 l-70 81 10 46 c12 52 39 109
134 278 205 367 224 558 80 837 -62 120 -79 179 -95 328 -40 366 77 1003 261
1422 36 82 149 284 281 501 35 58 152 273 259 477 107 204 197 371 200 372 3
0 25 -14 50 -30z m2687 -865 c2 -1 -34 -259 -79 -574 l-82 -572 -35 3 c-29 2
-36 7 -34 23 2 11 41 266 88 567 47 301 85 552 85 558 0 8 45 5 57 -5z m4
-607 c-39 -295 -71 -540 -71 -547 0 -16 -40 -13 -46 4 -4 8 29 262 72 565 77
536 79 549 98 531 18 -18 16 -32 -53 -553z m99 -22 c-33 -291 -60 -534 -60
-542 0 -8 -10 -14 -22 -14 -54 1 -55 -17 16 526 37 280 69 519 71 531 4 17 38
35 53 27 1 0 -25 -238 -58 -528z m-5030 -153 c-102 -263 -125 -377 -117 -578
6 -151 35 -269 94 -375 39 -71 198 -234 268 -275 94 -56 243 -68 470 -40 146
18 274 19 328 3 78 -23 137 -116 137 -214 0 -30 -3 -33 -47 -42 -164 -35 -285
-47 -478 -46 -182 1 -209 3 -296 26 -121 33 -236 91 -331 167 -163 131 -240
240 -295 416 -26 86 -27 100 -27 290 0 234 18 335 83 470 45 94 163 275 212
325 l34 35 3 -27 c2 -14 -16 -75 -38 -135z m4750 -480 c0 -45 -12 -63 -41 -63
-33 0 -44 18 -35 55 5 21 12 25 41 25 27 0 35 -4 35 -17z m82 12 c11 -4 13
-17 9 -48 -6 -38 -9 -42 -31 -39 -14 2 -26 5 -27 6 -1 1 1 20 4 44 5 41 15 48
45 37z m-200 -30 c-2 -14 -9 -25 -16 -25 -71 1 -76 47 -5 49 23 1 26 -2 21
-24z m319 -7 c-1 -5 -1 -20 -1 -35 0 -45 -12 -55 -47 -42 -29 10 -31 13 -26
47 8 63 9 64 43 50 17 -7 31 -16 31 -20z m94 -43 c20 -19 35 -40 33 -47 -5
-15 -67 -22 -85 -10 -13 8 -6 92 8 92 4 0 24 -16 44 -35z m-326 -111 c2 -2
-24 -199 -58 -436 -35 -238 -68 -469 -75 -513 -9 -64 -15 -80 -30 -83 -16 -3
-17 1 -12 35 3 21 29 247 56 503 28 256 53 475 56 488 4 19 9 21 32 16 15 -4
29 -8 31 -10z m94 -29 c-5 -41 -144 -971 -149 -998 -5 -22 -11 -27 -27 -25
-27 4 -33 -55 54 541 38 263 69 485 69 494 0 10 8 13 28 11 20 -2 26 -8 25
-23z m106 -2 c3 -2 -34 -234 -82 -516 -48 -281 -87 -515 -87 -519 0 -5 -11 -8
-25 -8 -14 0 -25 3 -25 8 0 13 151 1027 156 1040 3 11 49 8 63 -5z m-624
-3033 c22 -11 54 -31 70 -45 l30 -24 -63 -1 c-74 0 -129 21 -145 57 -21 47 25
52 108 13z m292 -270 c46 -27 67 -63 54 -89 -11 -19 -117 -101 -132 -101 -8 0
-4 53 13 148 5 34 15 62 22 62 6 0 25 -9 43 -20z"/>
<path d="M4863 9952 c-7 -5 5 -31 38 -82 171 -259 258 -533 284 -897 6 -82 9
-93 26 -93 22 0 23 3 9 160 -28 317 -121 600 -274 835 -56 86 -61 91 -83 77z"/>
<path d="M4343 9845 c-3 -9 -4 -17 -2 -19 2 -1 27 -15 54 -31 267 -150 483
-422 630 -795 42 -107 50 -119 67 -102 9 9 3 34 -27 109 -147 378 -360 649
-640 818 -66 40 -73 41 -82 20z"/>
<path d="M5191 9709 c-21 -23 -41 -98 -41 -152 0 -57 29 -169 60 -236 41 -86
98 -141 148 -141 127 0 152 185 47 353 -62 100 -115 167 -144 182 -39 20 -46
19 -70 -6z m109 -198 c0 -3 -4 -12 -9 -20 -14 -22 -31 -2 -31 37 l1 37 19 -24
c11 -13 20 -26 20 -30z m70 -211 c-6 -11 -15 -20 -21 -20 -6 0 -6 7 1 20 6 11
15 20 21 20 6 0 6 -7 -1 -20z"/>
<path d="M4297 9438 c-4 -13 1 -19 16 -22 104 -22 140 -32 195 -58 68 -32 156
-97 211 -156 18 -21 86 -102 150 -181 64 -79 123 -153 133 -165 13 -16 19 -18
31 -7 13 10 -2 34 -110 169 -69 86 -153 185 -187 220 -109 113 -248 190 -380
210 -49 8 -55 7 -59 -10z"/>
<path d="M5572 5960 c-80 -36 -201 -217 -257 -383 -14 -43 -30 -117 -35 -165
-4 -48 -15 -118 -24 -157 -8 -38 -29 -176 -46 -305 -45 -345 -83 -488 -166
-617 -34 -53 -116 -143 -131 -143 -5 0 -6 30 -5 66 3 52 0 70 -14 85 -61 68
-187 -57 -154 -154 12 -37 33 -63 74 -95 76 -59 232 0 332 126 84 107 144 257
225 562 l42 155 7 325 c8 369 14 403 80 474 38 40 40 41 107 41 80 0 84 5 76
85 -11 104 -41 131 -111 100z"/>
<path d="M6879 5831 c-13 -10 -34 -37 -47 -60 -25 -45 -26 -44 38 -55 48 -9
92 -41 128 -95 47 -71 57 -114 57 -246 0 -132 -16 -217 -101 -521 -88 -319
-113 -479 -94 -615 15 -106 41 -174 95 -248 107 -145 235 -160 306 -37 22 40
29 63 29 107 0 93 -46 104 -114 29 -35 -39 -37 -40 -64 -26 -62 32 -92 95 -92
195 0 88 14 155 89 417 63 223 87 350 78 415 -3 24 1 59 10 86 33 97 0 315
-72 470 -80 173 -173 242 -246 184z"/>
</g>
</svg>
